<svg width="28" height="29" viewBox="0 0 28 29" fill="none" xmlns="http://www.w3.org/2000/svg">
<g id="certificate 1">
<path id="Vector" d="M18.375 0.90625H7.875C5.45913 0.90625 3.5 2.93534 3.5 5.4375V20.8438C3.5 23.3459 5.45913 25.375 7.875 25.375H17.5V22.5557C16.4194 21.4111 15.75 19.8478 15.75 18.125C15.75 14.6269 18.4984 11.7812 21.875 11.7812C22.1725 11.7812 22.463 11.8112 22.75 11.8538V5.4375C22.75 2.93534 20.7909 0.90625 18.375 0.90625ZM12.4075 20.8438H7.875C7.39112 20.8438 7 20.4377 7 19.9375C7 19.4373 7.39112 19.0312 7.875 19.0312H12.4075C12.8914 19.0312 13.2825 19.4373 13.2825 19.9375C13.2825 20.4377 12.8914 20.8438 12.4075 20.8438ZM12.6175 16.3125H7.875C7.39112 16.3125 7 15.9065 7 15.4062C7 14.906 7.39112 14.5 7.875 14.5H12.6175C13.1014 14.5 13.4925 14.906 13.4925 15.4062C13.4925 15.9065 13.1014 16.3125 12.6175 16.3125ZM15.2688 11.7812H7.875C7.39112 11.7812 7 11.3752 7 10.875C7 10.3748 7.39112 9.96875 7.875 9.96875H15.2688C15.7526 9.96875 16.1438 10.3748 16.1438 10.875C16.1438 11.3752 15.7526 11.7812 15.2688 11.7812ZM18.375 7.25H7.875C7.39112 7.25 7 6.844 7 6.34375C7 5.8435 7.39112 5.4375 7.875 5.4375H18.375C18.8589 5.4375 19.25 5.8435 19.25 6.34375C19.25 6.844 18.8589 7.25 18.375 7.25Z" fill="white"/>
<path id="Vector_2" d="M21.875 24.4688C20.9344 24.4688 20.0463 24.2422 19.25 23.8498V27.1857C19.25 27.9098 20.0288 28.3412 20.6106 27.9397L21.875 27.0661L23.1394 27.9397C23.7212 28.3412 24.5 27.9098 24.5 27.1857V23.8498C23.7038 24.2422 22.8156 24.4688 21.875 24.4688Z" fill="white"/>
<path id="Vector_3" d="M21.875 22.6562C24.2912 22.6562 26.25 20.6275 26.25 18.125C26.25 15.6225 24.2912 13.5938 21.875 13.5938C19.4588 13.5938 17.5 15.6225 17.5 18.125C17.5 20.6275 19.4588 22.6562 21.875 22.6562Z" fill="white"/>
</g>
</svg>
