<svg width="29" height="29" viewBox="0 0 29 29" fill="none" xmlns="http://www.w3.org/2000/svg">
<g id="goal (1) 1">
<path id="Vector" fill-rule="evenodd" clip-rule="evenodd" d="M22.5243 7.18347V5.13432H26.6208C26.8725 5.13432 26.9989 4.82852 26.8211 4.65078L25.8796 3.7093L26.8211 2.76782C26.9989 2.59002 26.8723 2.28456 26.6208 2.28456H22.2413C22.0841 2.28456 21.9581 2.41138 21.9581 2.56776V7.18347H22.5243ZM8.76188 13.0525C8.76188 12.0116 7.91522 11.1647 6.87411 11.1647C5.833 11.1647 4.98605 12.0116 4.98605 13.0525C4.98605 14.0936 5.83294 14.9405 6.87411 14.9405C7.91522 14.9405 8.76188 14.0936 8.76188 13.0525ZM20.2385 13.0525C20.2385 14.0936 21.0851 14.9405 22.1262 14.9405C23.1674 14.9405 24.014 14.0936 24.014 13.0525C24.014 12.0116 23.1674 11.1647 22.1262 11.1647C21.0851 11.1647 20.2385 12.0116 20.2385 13.0525ZM14.439 9.62117C15.8797 9.62117 17.0517 8.44921 17.0517 7.0085C17.0517 5.56807 15.8797 4.39584 14.439 4.39584C12.9985 4.39584 11.8267 5.56802 11.8267 7.0085C11.8267 8.44921 12.9985 9.62117 14.439 9.62117ZM28.2621 13.6844C28.5101 14.1349 28.3452 14.7034 27.8945 14.9514L24.7061 16.7065C24.189 17.0107 24.1869 17.2542 24.1863 17.3347V25.8997C24.1863 26.3513 23.8192 26.7184 23.3682 26.7184H22.4094V22.1517C22.4094 21.7787 21.843 21.7789 21.843 22.1517V26.7184H20.8847C20.4331 26.7184 20.0666 26.3513 20.0666 25.8997V17.3318C20.0655 17.2543 20.0634 17.0108 19.5468 16.7066L18.1221 15.9224V13.7931L21.3354 15.5621C21.8349 15.8229 22.4173 15.8229 22.9168 15.5621L26.995 13.3171C27.4453 13.0692 28.0138 13.2344 28.2621 13.6844ZM17.3016 13.3413V25.6586C17.3016 26.2426 16.8263 26.7184 16.2418 26.7184H14.7833V18.6683C14.7833 18.2953 14.2169 18.2955 14.2169 18.6683V26.7184H12.6368C12.0521 26.7184 11.5768 26.2426 11.5768 25.6586L11.6652 16.4301L11.5718 13.1391C11.5332 12.8043 11.2722 12.5038 10.7573 12.2018L6.12742 9.65311C5.32403 9.21075 5.31326 8.13435 5.94367 7.62526H7.52899L13.232 10.7649C13.9938 11.163 14.885 11.1629 15.6467 10.7649L21.3496 7.62526H22.9323C23.571 8.13843 23.5499 9.21341 22.751 9.65311L18.1206 12.2021C17.5651 12.5285 17.3051 12.8527 17.3016 13.2232V13.3413H17.3016ZM10.8136 13.8285V15.958L9.45403 16.7066C8.9369 17.0108 8.93453 17.2543 8.93345 17.3348V25.8998C8.93345 26.3513 8.56687 26.7185 8.11556 26.7185H7.15714V22.1517C7.15714 21.7788 6.59079 21.779 6.59079 22.1517V26.7185H5.63187C5.18112 26.7185 4.81398 26.3513 4.81398 25.8998V17.3318C4.81347 17.2543 4.81103 17.0108 4.29396 16.7066L1.10583 14.9514C0.6548 14.7034 0.489862 14.1349 0.738175 13.6844C0.986147 13.2343 1.5551 13.0693 2.00523 13.3173L6.08341 15.5621C6.58286 15.8229 7.16524 15.8229 7.66481 15.5621L10.8136 13.8285ZM7.04222 7.18347V2.56482C7.04222 2.40843 6.91597 2.28162 6.75902 2.28162H2.37956C2.12819 2.28162 2.00115 2.58736 2.17923 2.76487L3.12042 3.70635L2.17923 4.64783C2.0012 4.82563 2.12814 5.13109 2.37956 5.13109H6.47587V7.18341H7.04222V7.18347Z" fill="white"/>
</g>
</svg>
