<svg width="29" height="29" viewBox="0 0 29 29" fill="none" xmlns="http://www.w3.org/2000/svg">
<g id="high-quality 1" clip-path="url(#clip0_32_55)">
<g id="Group">
<path id="Vector" d="M8.83592 25.2391C8.65467 25.1032 8.42811 24.9672 8.24686 24.8766C8.29217 24.5141 8.24686 24.1063 8.15623 23.6985C7.97498 23.0188 7.61248 22.3844 7.11404 21.7954C6.66092 22.1579 6.43436 22.7922 6.52498 23.4719C6.20779 23.1547 5.89061 22.8375 5.61873 22.5204C5.79998 22.2032 5.89061 21.7954 5.89061 21.3876C5.93592 20.7079 5.79998 20.0282 5.48279 19.3485C4.89373 19.5751 4.53123 20.1641 4.44061 20.8438C4.21404 20.4813 4.03279 20.0735 3.85154 19.711C4.12342 19.4391 4.34998 19.0766 4.48592 18.6688C4.71248 18.0344 4.75779 17.3547 4.62186 16.6297C3.98748 16.7204 3.44373 17.1735 3.17186 17.8532C3.03592 17.4001 2.94529 16.9922 2.89998 16.5391C3.26248 16.3579 3.57967 16.0407 3.80623 15.6782C4.16873 15.1344 4.44061 14.4547 4.48592 13.7297C3.80623 13.6391 3.12654 14.0016 2.71873 14.636C2.71873 14.1829 2.76404 13.6844 2.80936 13.2313C3.21717 13.1407 3.62498 12.9141 3.98748 12.6422C4.48592 12.2344 4.89373 11.6454 5.16561 10.9657C4.53123 10.6938 3.76092 10.875 3.17186 11.4188C3.30779 10.9657 3.44373 10.4672 3.62498 10.0141C4.07811 10.0594 4.53123 9.92349 4.93904 9.74224C5.52811 9.47036 6.07186 9.01724 6.52498 8.38286C5.98123 7.92974 5.16561 7.92974 4.44061 8.33755C4.71248 7.88442 4.98436 7.47661 5.30154 7.0688C5.70936 7.25005 6.20779 7.25005 6.70623 7.15942C7.38592 7.02349 8.06561 6.75161 8.69998 6.25317C8.29217 5.66411 7.47654 5.43755 6.61561 5.66411C7.24998 5.07505 7.92967 4.5313 8.74529 4.07817C8.97186 3.94224 9.06248 3.67036 8.92654 3.4438C8.79061 3.21724 8.47342 3.12661 8.24686 3.26255C7.38592 3.76099 6.61561 4.35005 5.93592 4.98442C6.29842 4.07817 6.34373 3.26255 5.93592 2.62817C5.12029 3.17192 4.53123 4.07817 4.39529 4.84849C4.25936 5.43755 4.34998 5.93599 4.62186 6.3438C4.25936 6.79692 3.94217 7.29536 3.67029 7.74849C3.76092 6.79692 3.53436 5.9813 2.99061 5.52817C2.35623 6.38911 2.08436 7.38599 2.17498 8.1563C2.22029 8.74536 2.44686 9.19849 2.80936 9.51567C2.58279 10.0594 2.40154 10.5579 2.26561 11.1016C2.08436 10.1954 1.67654 9.47036 0.996856 9.15317C0.634356 10.15 0.634356 11.1469 0.906231 11.8719C1.13279 12.4157 1.44998 12.7782 1.90311 13.0047C1.81248 13.5485 1.81248 14.0922 1.81248 14.636C1.40467 13.8204 0.815606 13.2766 0.0906061 13.186C-1.89021e-05 14.2282 0.271856 15.1797 0.724981 15.8141C1.04217 16.2672 1.49529 16.5391 1.94842 16.6297C1.99373 17.1735 2.12967 17.6719 2.22029 18.1704C1.63123 17.536 0.951544 17.1735 0.226544 17.2641C0.407794 18.3063 0.906231 19.1672 1.54061 19.6204C1.94842 19.9829 2.44686 20.1188 2.85467 20.0735C3.03592 20.5266 3.26248 21.025 3.48904 21.4329C2.71873 21.1157 1.99373 20.9344 1.35936 21.2063C1.81248 22.1579 2.53748 22.8829 3.26248 23.2001C3.76092 23.4266 4.21404 23.4266 4.62186 23.336C4.93904 23.7438 5.25623 24.1063 5.61873 24.4688C4.84842 24.2875 4.16873 24.3329 3.67029 24.7407C4.39529 25.5563 5.34686 26.0547 6.16248 26.1907C6.66092 26.2813 7.11404 26.1907 7.47654 26.0094C7.65779 26.1454 7.88436 26.2813 8.06561 26.4172C8.42811 26.6438 8.88123 26.5079 9.06248 26.1454C9.24373 25.8282 9.1531 25.4204 8.83592 25.2391Z" fill="white"/>
<path id="Vector_2" d="M26.8703 18.1703C27.0062 17.6719 27.0968 17.1281 27.1422 16.6297C27.5953 16.5391 28.0031 16.2672 28.3656 15.8141C28.8187 15.1797 29.0906 14.2281 29 13.186C28.275 13.2766 27.6859 13.8656 27.2781 14.636C27.2781 14.0922 27.2328 13.5485 27.1875 13.0047C27.5953 12.8235 27.9578 12.4156 28.1843 11.8719C28.4562 11.1469 28.5015 10.15 28.0937 9.15315C27.414 9.47034 27.0062 10.1953 26.825 11.1016C26.689 10.5578 26.5078 10.0141 26.2812 9.51565C26.6437 9.19846 26.8703 8.74534 26.9156 8.15627C27.0062 7.38596 26.7343 6.38909 26.1 5.52815C25.5109 5.98127 25.3297 6.84221 25.4203 7.74846C25.0578 7.25002 24.7406 6.7969 24.3781 6.34377C24.65 5.98127 24.7406 5.43752 24.6047 4.84846C24.4687 4.07815 23.8797 3.1719 22.9734 2.4469C22.5656 3.03596 22.6109 3.8969 22.9734 4.80315C22.2937 4.16877 21.5234 3.57971 20.6625 3.08127C20.4359 2.94534 20.1187 3.03596 19.9828 3.26252C19.8468 3.48909 19.9375 3.76096 20.164 3.8969C20.9343 4.35002 21.6593 4.89377 22.2937 5.48284C21.4328 5.25627 20.6172 5.48284 20.2093 6.0719C20.8437 6.57034 21.5234 6.84221 22.2031 6.97815C22.7015 7.06877 23.2 7.06877 23.6078 6.88752C23.925 7.29534 24.2422 7.74846 24.4687 8.15627C23.7437 7.74846 22.9281 7.74846 22.3843 8.20159C22.8375 8.79065 23.3812 9.28909 23.9703 9.56096C24.4234 9.78752 24.8765 9.87815 25.2843 9.83284C25.4656 10.286 25.6015 10.7391 25.7375 11.2375C25.1484 10.6938 24.3781 10.5125 23.7437 10.7844C24.0156 11.4641 24.4234 12.0531 24.9218 12.461C25.2843 12.7781 25.6922 12.9594 26.1 13.05C26.1453 13.5031 26.1906 14.0016 26.1906 14.4547C25.7828 13.8203 25.1031 13.4578 24.4234 13.5485C24.514 14.2735 24.7406 14.9531 25.1031 15.4969C25.3297 15.8594 25.6468 16.1766 26.0093 16.3578C25.9187 16.811 25.8281 17.2188 25.7375 17.6719C25.4656 16.9922 24.9672 16.4938 24.2875 16.4485C24.1515 17.1735 24.2422 17.8985 24.4234 18.4875C24.5593 18.8953 24.7406 19.2578 25.0578 19.5297C24.8765 19.9375 24.6953 20.3 24.4687 20.6625C24.3781 19.9828 24.0156 19.3938 23.4265 19.1672C23.1093 19.8469 22.9734 20.5266 23.0187 21.2063C23.0187 21.6141 23.1093 22.0219 23.2906 22.3391C23.0187 22.6563 22.7015 22.9735 22.3843 23.2906C22.475 22.611 22.2937 21.9766 21.7953 21.6141C21.2968 22.2031 20.9343 22.8375 20.7531 23.5172C20.6625 23.925 20.6172 24.3328 20.6625 24.6953C20.4812 24.8313 20.3 24.9672 20.0734 25.0578C19.7562 25.2391 19.6656 25.6469 19.8015 25.9641C19.9828 26.3266 20.4359 26.4625 20.7984 26.236C21.025 26.1 21.2062 25.9641 21.3875 25.8281C21.75 26.0094 22.2031 26.1 22.7015 26.0094C23.5172 25.8735 24.4687 25.375 25.1937 24.5594C24.6953 24.1516 24.0156 24.1063 23.2453 24.2875C23.6078 23.925 23.925 23.5625 24.2422 23.1547C24.65 23.2453 25.1031 23.2 25.6015 23.0188C26.3265 22.7016 27.0515 22.0219 27.5047 21.025C26.8703 20.7531 26.1453 20.9344 25.4656 21.3422C25.6922 20.8891 25.9187 20.436 26.1 19.9828C26.5531 19.9828 27.0062 19.8469 27.414 19.5297C28.0031 19.0313 28.5468 18.2156 28.7281 17.1735C28.139 17.1735 27.4593 17.5813 26.8703 18.1703Z" fill="white"/>
<path id="Vector_3" d="M20.0734 22.3391L19.1219 16.8563L23.1094 12.9594C23.2453 12.8234 23.2906 12.6422 23.2453 12.5063C23.2 12.325 23.064 12.2344 22.8828 12.1891L17.3547 11.3734L14.9078 6.38906C14.8172 6.25313 14.6812 6.11719 14.5 6.11719C14.3187 6.11719 14.1828 6.20781 14.0922 6.38906L11.6453 11.3734L6.11716 12.1891C5.93591 12.2344 5.79998 12.325 5.75466 12.5063C5.70935 12.6875 5.75466 12.8688 5.8906 12.9594L9.8781 16.8563L8.92654 22.3391C8.88123 22.5203 8.97185 22.7016 9.10779 22.7922C9.24373 22.8828 9.42498 22.9281 9.60623 22.8375L14.5 20.2094L19.439 22.7922C19.4844 22.8375 19.575 22.8375 19.6656 22.8375C19.7562 22.8375 19.8469 22.7922 19.9375 22.7469C20.0281 22.6563 20.1187 22.5203 20.0734 22.3391Z" fill="white"/>
</g>
</g>
<defs>
<clipPath id="clip0_32_55">
<rect width="29" height="29" fill="white"/>
</clipPath>
</defs>
</svg>
